<svg width="379" height="379" viewBox="0 0 379 379" fill="none" xmlns="http://www.w3.org/2000/svg">
<path d="M189.676 204.1H188.617V43.708H189.676V204.1Z" fill="#4258B0"/>
<path d="M175.017 118.293L163.528 45.7627L164.576 45.5973L176.064 118.128L175.017 118.293" fill="#4258B0"/>
<path d="M161.065 119.413L139.071 51.7227L140.077 51.3947L162.071 119.085L161.065 119.413" fill="#4258B0"/>
<path d="M188.643 204.265L163.024 125.449L164.029 125.121L189.649 203.937L188.643 204.265" fill="#4258B0"/>
<path d="M188.673 204.343L141.887 112.54L142.833 112.06L189.62 203.86L188.673 204.343" fill="#4258B0"/>
<path d="M140.949 138.677L94.424 74.6507L95.2817 74.0294L141.807 138.056L140.949 138.677" fill="#4258B0"/>
<path d="M188.717 204.413L145.48 144.907L146.337 144.283L189.576 203.789L188.717 204.413Z" fill="#4258B0"/>
<path d="M115.507 131.229L75.3281 91.0667L76.0797 90.3174L116.258 130.481L115.507 131.229" fill="#4258B0"/>
<path d="M144.02 159.733L120.523 136.245L121.275 135.497L144.771 158.985L144.02 159.733Z" fill="#4258B0"/>
<path d="M119.763 154.36L95.9943 137.095L96.6156 136.237L120.384 153.503L119.763 154.36Z" fill="#4258B0"/>
<path d="M188.836 204.531L128.793 160.92L129.415 160.061L189.457 203.675L188.836 204.531" fill="#4258B0"/>
<path d="M111.032 164.912L45.9636 131.771L46.4427 130.824L111.511 163.965L111.032 164.912Z" fill="#4258B0"/>
<path d="M188.907 204.573L116.311 167.596L116.791 166.652L189.385 203.629L188.907 204.573Z" fill="#4258B0"/>
<path d="M103.197 176.749L36.4079 155.057L36.7323 154.048L103.521 175.741L103.197 176.749Z" fill="#4258B0"/>
<path d="M188.984 204.605L109.455 178.78L109.781 177.771L189.308 203.597L188.984 204.605Z" fill="#4258B0"/>
<path d="M189.063 204.627L96.5973 189.997L96.7631 188.951L189.229 203.579L189.063 204.627Z" fill="#4258B0"/>
<path d="M97.0412 204.649V203.588L189.145 203.571V204.632L97.0412 204.649Z" fill="#4258B0"/>
<path d="M30.7693 229.752L30.6041 228.705L189.063 203.579L189.229 204.627L30.7693 229.752" fill="#4258B0"/>
<path d="M36.7208 254.211L36.3953 253.201L188.984 203.597L189.308 204.605L36.7208 254.211Z" fill="#4258B0"/>
<path d="M46.4307 277.437L45.9521 276.49L188.907 203.629L189.385 204.573L46.4307 277.437Z" fill="#4258B0"/>
<path d="M59.6527 298.86L59.0312 298.004L127.048 248.573L127.669 249.431L59.6527 298.86" fill="#4258B0"/>
<path d="M76.0677 317.948L75.3161 317.199L188.771 203.728L189.521 204.476L76.0677 317.948" fill="#4258B0"/>
<path d="M133.827 281.155L132.969 280.535L188.717 203.789L189.576 204.413L133.827 281.155" fill="#4258B0"/>
<path d="M147.465 287.08L146.519 286.601L188.673 203.86L189.62 204.343L147.465 287.08Z" fill="#4258B0"/>
<path d="M140.063 356.88L139.056 356.555L188.643 203.937L189.649 204.265L140.063 356.88" fill="#4258B0"/>
<path d="M175.609 292.984L174.561 292.819L188.623 204.017L189.669 204.183L175.609 292.984Z" fill="#4258B0"/>
<path d="M189.667 364.571H188.608L188.611 286.935H189.669L189.667 364.571" fill="#4258B0"/>
<path d="M189.632 276.711H188.572V263.099H189.632V276.711Z" fill="#4258B0"/>
<path d="M189.669 263.101H188.611V251.433H189.669V263.101Z" fill="#4258B0"/>
<path d="M213.711 362.683L188.623 204.183L189.669 204.017L214.756 362.517L213.711 362.683" fill="#4258B0"/>
<path d="M238.207 356.883L210.489 271.54L211.496 271.215L239.212 356.559L238.207 356.883" fill="#4258B0"/>
<path d="M208.515 265.453L188.643 204.265L189.649 203.937L209.52 265.124L208.515 265.453" fill="#4258B0"/>
<path d="M261.496 347.331L226.515 278.635L227.461 278.153L262.443 346.849L261.496 347.331" fill="#4258B0"/>
<path d="M223.824 273.359L188.673 204.343L189.62 203.86L224.769 272.88L223.824 273.359" fill="#4258B0"/>
<path d="M243.988 280.528L188.717 204.413L189.576 203.789L244.848 279.905L243.988 280.528" fill="#4258B0"/>
<path d="M302.204 317.966L188.771 204.476L189.521 203.728L302.956 317.216L302.204 317.966" fill="#4258B0"/>
<path d="M318.623 298.878L266.607 261.063L267.228 260.205L319.244 298.021L318.623 298.878" fill="#4258B0"/>
<path d="M261.032 257.015L188.836 204.531L189.457 203.675L261.652 256.156L261.032 257.015" fill="#4258B0"/>
<path d="M331.844 277.456L188.907 204.573L189.385 203.629L332.323 276.512L331.844 277.456" fill="#4258B0"/>
<path d="M341.552 254.235L188.984 204.605L189.308 203.597L341.876 253.223L341.552 254.235" fill="#4258B0"/>
<path d="M282.239 219.415L189.063 204.627L189.229 203.579L282.405 218.368L282.239 219.415Z" fill="#4258B0"/>
<path d="M349.573 204.683L269.319 204.659V203.597L349.573 203.621V204.683Z" fill="#4258B0"/>
<path d="M262.872 204.659L189.145 204.632V203.571L262.872 203.597V204.659Z" fill="#4258B0"/>
<path d="M269.029 192.011L268.864 190.964L347.517 178.529L347.683 179.577L269.029 192.011" fill="#4258B0"/>
<path d="M189.229 204.627L189.063 203.579L262.839 191.919L263.004 192.967L189.229 204.627Z" fill="#4258B0"/>
<path d="M278.693 175.589L278.367 174.58L341.563 154.072L341.888 155.079L278.693 175.589" fill="#4258B0"/>
<path d="M189.308 204.605L188.984 203.597L271.819 176.708L272.143 177.716L189.308 204.605Z" fill="#4258B0"/>
<path d="M189.385 204.573L188.907 203.629L279.541 157.479L280.021 158.427L189.385 204.573" fill="#4258B0"/>
<path d="M241.977 166.391L241.357 165.533L318.629 109.42L319.249 110.277L241.977 166.391Z" fill="#4258B0"/>
<path d="M262.433 131.596L261.683 130.845L302.212 90.332L302.964 91.0814L262.433 131.596Z" fill="#4258B0"/>
<path d="M189.521 204.476L188.771 203.728L255.781 136.745L256.532 137.493L189.521 204.476" fill="#4258B0"/>
<path d="M242.797 131.185L241.94 130.564L283.017 74.044L283.873 74.668L242.797 131.185" fill="#4258B0"/>
<path d="M189.576 204.413L188.717 203.789L237.633 136.493L238.489 137.115L189.576 204.413Z" fill="#4258B0"/>
<path d="M227.263 130.492L226.316 130.011L261.509 60.9614L262.455 61.44L227.263 130.492" fill="#4258B0"/>
<path d="M189.62 204.343L188.673 203.86L223.741 135.063L224.687 135.545L189.62 204.343Z" fill="#4258B0"/>
<path d="M189.649 204.265L188.643 203.937L218.493 112.081L219.499 112.408L189.649 204.265" fill="#4258B0"/>
<path d="M203.769 115.184L202.723 115.019L213.721 45.6107L214.769 45.776L203.769 115.184" fill="#4258B0"/>
<path d="M189.669 204.183L188.623 204.017L202.055 119.231L203.1 119.397L189.669 204.183Z" fill="#4258B0"/>
<path d="M188.617 204.131L180.223 43.9534L181.281 43.8974L189.676 204.075L188.617 204.131Z" fill="#62C331"/>
<path d="M189.673 204.156L188.62 204.047L198.401 111.007L199.455 111.116L189.673 204.156Z" fill="#62C331"/>
<path d="M188.628 204.212L155.277 47.3227L156.312 47.104L189.664 203.989L188.628 204.212Z" fill="#62C331"/>
<path d="M162.245 135.516L131.165 54.5467L132.153 54.168L163.233 135.136L162.245 135.516" fill="#62C331"/>
<path d="M136.212 113.497L108.479 65.46L109.396 64.9294L137.128 112.968L136.212 113.497" fill="#62C331"/>
<path d="M188.688 204.365L139.864 119.821L140.78 119.292L189.605 203.837L188.688 204.365" fill="#62C331"/>
<path d="M188.736 204.435L115.128 113.563L115.951 112.897L189.557 203.769L188.736 204.435Z" fill="#62C331"/>
<path d="M131.12 152.581L102.741 127.039L103.451 126.252L131.831 151.795L131.12 152.581Z" fill="#62C331"/>
<path d="M188.791 204.496L137.903 158.689L138.612 157.9L189.501 203.705L188.791 204.496Z" fill="#62C331"/>
<path d="M101.517 147.843L54.3073 117.197L54.8875 116.311L102.096 146.956L101.517 147.843" fill="#62C331"/>
<path d="M188.86 204.545L105.247 150.269L105.826 149.381L189.44 203.656L188.86 204.545" fill="#62C331"/>
<path d="M188.931 204.584L97.7251 163.999L98.1563 163.028L189.361 203.617L188.931 204.584Z" fill="#62C331"/>
<path d="M114.959 184.783L34.0469 163.121L34.3193 162.099L115.232 183.759L114.959 184.783Z" fill="#62C331"/>
<path d="M189.009 204.615L120.677 186.313L120.949 185.289L189.281 203.591L189.009 204.615" fill="#62C331"/>
<path d="M189.089 204.629L29.5339 187.888L29.6453 186.836L189.203 203.573L189.089 204.629" fill="#62C331"/>
<path d="M28.9563 213.056L28.9031 211.997L111.828 207.637L111.88 208.695L28.9563 213.056" fill="#62C331"/>
<path d="M32.3255 238.001L32.1068 236.965L104.143 221.641L104.362 222.681L32.3255 238.001" fill="#62C331"/>
<path d="M39.5479 262.117L39.1697 261.129L188.957 203.607L189.336 204.597L39.5479 262.117Z" fill="#62C331"/>
<path d="M50.4661 284.808L49.9328 283.892L188.88 203.641L189.413 204.561L50.4661 284.808Z" fill="#62C331"/>
<path d="M64.7927 305.508L64.124 304.685L118.223 260.868L118.891 261.692L64.7927 305.508" fill="#62C331"/>
<path d="M122.357 258.884L121.688 258.059L188.812 203.688L189.48 204.515L122.357 258.884" fill="#62C331"/>
<path d="M82.1817 323.719L81.3953 323.009L148.029 248.982L148.817 249.689L82.1817 323.719Z" fill="#62C331"/>
<path d="M102.2 338.973L101.312 338.399L154.285 256.816L155.173 257.392L102.2 338.973" fill="#62C331"/>
<path d="M157.669 253.551L156.781 252.975L188.703 203.812L189.589 204.389L157.669 253.551" fill="#62C331"/>
<path d="M124.366 350.913L123.395 350.483L168.572 249.005L169.543 249.436L124.366 350.913Z" fill="#62C331"/>
<path d="M148.125 359.241L147.101 358.966L176.188 250.431L177.212 250.703L148.125 359.241Z" fill="#62C331"/>
<path d="M172.889 363.747L171.837 363.637L180.492 281.299L181.545 281.408L172.889 363.747Z" fill="#62C331"/>
<path d="M182.251 274.703L181.199 274.592L188.62 204.047L189.673 204.156L182.251 274.703" fill="#62C331"/>
<path d="M196.999 364.382L191.929 267.478L192.988 267.425L198.059 364.328L196.999 364.382" fill="#62C331"/>
<path d="M191.472 258.69L188.617 204.131L189.676 204.075L192.532 258.639L191.472 258.69Z" fill="#62C331"/>
<path d="M221.973 361.178L198.683 251.533L199.717 251.315L223.009 360.956L221.973 361.178" fill="#62C331"/>
<path d="M246.133 354.109L206.791 251.577L207.777 251.199L247.121 353.728L246.133 354.109" fill="#62C331"/>
<path d="M268.895 343.347L223.701 265.029L224.62 264.501L269.811 342.82L268.895 343.347" fill="#62C331"/>
<path d="M220.269 259.09L188.688 204.365L189.605 203.837L221.189 258.559L220.269 259.09Z" fill="#62C331"/>
<path d="M289.687 329.157L241.343 269.424L242.165 268.76L290.509 328.488L289.687 329.157Z" fill="#62C331"/>
<path d="M237.272 264.397L188.736 204.435L189.557 203.769L238.093 263.731L237.272 264.397" fill="#62C331"/>
<path d="M260.207 268.831L188.791 204.496L189.501 203.705L260.917 268.04L260.207 268.831" fill="#62C331"/>
<path d="M323.396 291.972L259.377 250.371L259.959 249.484L323.976 291.082L323.396 291.972Z" fill="#62C331"/>
<path d="M279.68 228.936L189.009 204.615L189.281 203.591L279.953 227.912L279.68 228.936" fill="#62C331"/>
<path d="M348.639 221.447L276.441 213.837L276.555 212.784L348.751 220.395L348.639 221.447Z" fill="#62C331"/>
<path d="M270.384 213.197L189.089 204.629L189.203 203.573L270.496 212.145L270.384 213.197Z" fill="#62C331"/>
<path d="M189.173 204.632L189.12 203.573L349.323 195.224L349.377 196.283L189.173 204.632Z" fill="#62C331"/>
<path d="M189.256 204.62L189.037 203.581L279.143 184.461L279.361 185.495L189.256 204.62" fill="#62C331"/>
<path d="M258.199 178.187L257.819 177.199L338.732 146.165L339.111 147.157L258.199 178.187" fill="#62C331"/>
<path d="M189.336 204.597L188.957 203.607L250.715 179.92L251.093 180.911L189.336 204.597Z" fill="#62C331"/>
<path d="M260.848 163.339L260.316 162.421L327.817 123.477L328.352 124.393L260.848 163.339" fill="#62C331"/>
<path d="M189.413 204.561L188.88 203.641L254.413 165.829L254.944 166.745L189.413 204.561" fill="#62C331"/>
<path d="M247.085 157.888L246.417 157.065L313.491 102.776L314.159 103.597L247.085 157.888" fill="#62C331"/>
<path d="M189.48 204.515L188.812 203.688L241.201 161.285L241.871 162.112L189.48 204.515Z" fill="#62C331"/>
<path d="M245.135 142.741L244.347 142.031L296.101 84.5707L296.889 85.28L245.135 142.741" fill="#62C331"/>
<path d="M189.54 204.455L188.752 203.744L240.139 146.701L240.924 147.411L189.54 204.455" fill="#62C331"/>
<path d="M245.704 118.005L244.817 117.425L276.081 69.3147L276.968 69.8907L245.704 118.005" fill="#62C331"/>
<path d="M189.589 204.389L188.703 203.812L241.384 122.713L242.271 123.289L189.589 204.389Z" fill="#62C331"/>
<path d="M218.6 139.269L217.629 138.837L253.916 57.3694L254.887 57.8014L218.6 139.269" fill="#62C331"/>
<path d="M189.659 204.24L188.635 203.965L230.155 49.048L231.179 49.3227L189.659 204.24" fill="#62C331"/>
<path d="M335.481 269.887L188.931 204.584L189.361 203.617L335.913 268.919L335.481 269.887" fill="#62C331"/>
<path d="M205.377 363.747L197.428 288.044L198.48 287.932L206.431 363.637L205.377 363.747" fill="#E81B38"/>
<path d="M338.724 262.136L188.957 204.597L189.336 203.607L339.101 261.147L338.724 262.136Z" fill="#E81B38"/>
<path d="M188.62 204.156L178.889 111.528L179.943 111.416L189.673 204.047L188.62 204.156Z" fill="#E81B38"/>
<path d="M188.635 204.24L164.047 112.477L165.071 112.203L189.659 203.965L188.635 204.24Z" fill="#E81B38"/>
<path d="M188.661 204.319L123.413 57.788L124.383 57.356L189.632 203.887L188.661 204.319" fill="#E81B38"/>
<path d="M152.267 148.292L101.33 69.8734L102.218 69.296L153.153 147.715L152.267 148.292" fill="#E81B38"/>
<path d="M125.362 134.077L81.4131 85.2587L82.1989 84.5494L126.149 133.368L125.362 134.077" fill="#E81B38"/>
<path d="M188.752 204.455L129.713 138.903L130.499 138.192L189.54 203.744L188.752 204.455Z" fill="#E81B38"/>
<path d="M188.812 204.515L64.136 103.58L64.8052 102.755L189.48 203.688L188.812 204.515Z" fill="#E81B38"/>
<path d="M135.164 173.559L49.9448 124.373L50.4771 123.453L135.696 172.639L135.164 173.559" fill="#E81B38"/>
<path d="M129.157 181.653L39.1849 147.131L39.5631 146.143L129.536 180.663L129.157 181.653Z" fill="#E81B38"/>
<path d="M124.359 190.881L32.1093 171.289L32.3281 170.251L124.578 189.847L124.359 190.881Z" fill="#E81B38"/>
<path d="M106.488 200.313L28.9031 196.259L28.9563 195.2L106.542 199.255L106.488 200.313Z" fill="#E81B38"/>
<path d="M189.12 204.632L111.408 200.572L111.46 199.513L189.173 203.573L189.12 204.632Z" fill="#E81B38"/>
<path d="M29.6453 221.427L29.5339 220.373L97.7771 213.188L97.8907 214.245L29.6453 221.427" fill="#E81B38"/>
<path d="M103.776 213.621L103.664 212.569L189.089 203.573L189.203 204.629L103.776 213.621" fill="#E81B38"/>
<path d="M96.2964 229.545L96.0235 228.523L189.009 203.591L189.281 204.615L96.2964 229.545Z" fill="#E81B38"/>
<path d="M42.7907 269.871L42.3584 268.901L188.931 203.617L189.361 204.584L42.7907 269.871Z" fill="#E81B38"/>
<path d="M107.234 257.943L106.654 257.056L188.857 203.656L189.436 204.545L107.234 257.943" fill="#E81B38"/>
<path d="M70.2677 311.878L69.5579 311.088L131.411 255.384L132.121 256.172L70.2677 311.878" fill="#E81B38"/>
<path d="M135.684 252.965L134.975 252.176L188.791 203.705L189.501 204.496L135.684 252.965" fill="#E81B38"/>
<path d="M88.5855 329.148L87.7631 328.483L132.886 272.744L133.709 273.412L88.5855 329.148" fill="#E81B38"/>
<path d="M137.039 269.303L136.217 268.637L188.736 203.769L189.557 204.435L137.039 269.303Z" fill="#E81B38"/>
<path d="M109.372 343.339L108.456 342.809L149.276 272.104L150.193 272.632L109.372 343.339" fill="#E81B38"/>
<path d="M153.076 267.632L152.16 267.107L188.688 203.837L189.605 204.365L153.076 267.632" fill="#E81B38"/>
<path d="M132.135 354.103L131.148 353.721L164.209 267.596L165.197 267.976L132.135 354.103" fill="#E81B38"/>
<path d="M167.179 262.813L166.191 262.436L188.652 203.911L189.64 204.292L167.179 262.813Z" fill="#E81B38"/>
<path d="M156.297 361.173L155.263 360.953L176.489 261.089L177.525 261.312L156.297 361.173" fill="#E81B38"/>
<path d="M178.737 255.621L177.703 255.404L188.628 203.989L189.664 204.212L178.737 255.621Z" fill="#E81B38"/>
<path d="M184.831 296.404L183.772 296.347L188.617 204.075L189.676 204.131L184.831 296.404" fill="#E81B38"/>
<path d="M196.121 275.565L188.62 204.156L189.673 204.047L197.173 275.456L196.121 275.565" fill="#E81B38"/>
<path d="M212.273 292.513L188.635 204.24L189.659 203.965L213.297 292.241L212.273 292.513" fill="#E81B38"/>
<path d="M253.904 350.924L188.661 204.316L189.632 203.887L254.873 350.492L253.904 350.924" fill="#E81B38"/>
<path d="M276.069 338.978L219.351 251.607L220.239 251.031L276.957 338.407L276.069 338.978" fill="#E81B38"/>
<path d="M296.091 323.724L235.048 255.894L235.835 255.184L296.876 323.017L296.091 323.724" fill="#E81B38"/>
<path d="M230.487 250.827L188.752 204.455L189.54 203.744L231.273 250.117L230.487 250.827Z" fill="#E81B38"/>
<path d="M313.481 305.521L252.516 256.125L253.185 255.301L314.149 304.7L313.481 305.521" fill="#E81B38"/>
<path d="M246.988 251.652L188.812 204.515L189.48 203.688L247.656 250.829L246.988 251.652" fill="#E81B38"/>
<path d="M274.841 254.223L188.88 204.561L189.413 203.641L275.373 253.301L274.841 254.223" fill="#E81B38"/>
<path d="M345.959 238.023L189.037 204.62L189.256 203.581L346.176 236.987L345.959 238.023Z" fill="#E81B38"/>
<path d="M280.656 209.456L189.12 204.632L189.173 203.573L280.709 208.397L280.656 209.456Z" fill="#E81B38"/>
<path d="M281.671 194.94L281.559 193.887L348.639 186.856L348.751 187.909L281.671 194.94Z" fill="#E81B38"/>
<path d="M189.203 204.629L189.089 203.573L275.895 194.479L276.007 195.533L189.203 204.629" fill="#E81B38"/>
<path d="M252.531 187.685L252.259 186.663L343.972 162.117L344.245 163.14L252.531 187.685Z" fill="#E81B38"/>
<path d="M189.361 204.584L188.931 203.617L335.493 138.413L335.925 139.381L189.361 204.584" fill="#E81B38"/>
<path d="M271.58 151.227L270.999 150.339L323.407 116.331L323.984 117.221L271.58 151.227" fill="#E81B38"/>
<path d="M189.436 204.545L188.857 203.656L264.783 154.375L265.361 155.264L189.436 204.545" fill="#E81B38"/>
<path d="M189.501 204.496L188.791 203.705L274.632 126.447L275.341 127.237L189.501 204.496Z" fill="#E81B38"/>
<path d="M230.124 154.368L229.301 153.7L262.836 112.303L263.657 112.968L230.124 154.368Z" fill="#E81B38"/>
<path d="M189.605 204.365L188.688 203.837L268.903 64.9427L269.819 65.476L189.605 204.365" fill="#E81B38"/>
<path d="M221.999 120.028L221.011 119.649L246.144 54.18L247.133 54.5614L221.999 120.028" fill="#E81B38"/>
<path d="M189.64 204.292L188.652 203.911L218.792 125.413L219.78 125.796L189.64 204.292Z" fill="#E81B38"/>
<path d="M206.333 125.804L205.299 125.585L221.987 47.1134L223.023 47.332L206.333 125.804" fill="#E81B38"/>
<path d="M189.676 204.131L188.617 204.075L197.016 43.908L198.076 43.9654L189.676 204.131" fill="#E81B38"/>
<path d="M93.0307 300.244H285.252V108.031H93.0307V300.244ZM287.525 302.517H90.7588V105.759H287.525V302.517Z" fill="white"/>
<path d="M189.135 78.0293C127.87 78.0293 78.0287 127.871 78.0287 189.133C78.0287 250.401 127.87 300.244 189.135 300.244C250.408 300.244 300.257 250.401 300.257 189.133C300.257 127.871 250.408 78.0293 189.135 78.0293V78.0293ZM189.135 302.517C126.619 302.517 75.7573 251.655 75.7573 189.133C75.7573 126.619 126.619 75.7573 189.135 75.7573C251.661 75.7573 302.528 126.619 302.528 189.133C302.528 251.655 251.661 302.517 189.135 302.517" fill="white"/>
<path d="M286.388 246.36H91.8948V244.088H286.388V246.36Z" fill="white"/>
<path d="M285.46 245.876L188.205 107.547L190.063 106.241L287.317 244.572L285.46 245.876" fill="white"/>
<path d="M92.8234 245.876L90.9666 244.572L188.205 106.241L190.063 107.547L92.8234 245.876Z" fill="white"/>
<path d="M230.669 230.223C230.224 230.501 229.632 230.596 229.059 230.689C228.745 230.737 228.449 230.788 228.192 230.861C227.34 231.109 226.463 231.448 225.339 231.957C224.207 232.465 223.427 233.216 222.596 234.007C222.351 234.245 222.095 234.481 221.829 234.721C220.927 235.535 219.805 235.965 218.583 235.965C218.215 235.965 217.837 235.925 217.464 235.848C217.073 235.763 216.687 235.647 216.312 235.541C215.915 235.416 215.5 235.299 215.084 235.215C214.932 235.187 214.721 235.187 214.5 235.18C214.044 235.175 213.527 235.163 213.225 234.931L213.116 234.849L213.191 234.731C213.853 233.7 215.588 232.689 216.872 232.141C218.027 231.648 219.304 231.257 220.539 230.88L220.908 230.767C223.131 230.087 225.521 229.457 227.893 229.457C228.241 229.457 228.588 229.471 228.921 229.499H228.94C228.94 229.499 228.949 229.501 228.96 229.501L229.04 229.507C229.111 229.516 229.212 229.528 229.265 229.531L229.325 229.536C229.845 229.583 230.443 229.643 230.711 230.004L230.809 230.133L230.669 230.223ZM211.14 234.467L210.808 234.825C210.117 235.559 209.407 236.321 208.748 237.103C208.673 237.193 208.579 237.34 208.484 237.496C208.245 237.877 207.959 238.34 207.579 238.517L207.576 238.596H207.428C207.419 238.596 207.365 238.593 207.224 238.587L207.075 238.577L207.069 238.54C207.049 238.527 207.029 238.517 207.012 238.505C206.984 238.487 206.953 238.468 206.94 238.468L206.809 238.503L206.751 238.381C206.556 237.932 206.824 237.416 207.059 236.955C207.143 236.796 207.224 236.637 207.272 236.509C207.368 236.225 207.455 235.936 207.543 235.649C207.62 235.405 207.695 235.16 207.773 234.913C208.205 233.641 208.999 232.529 209.761 231.453L209.789 231.411C211.483 229.021 213.572 227.365 216.349 226.193L216.624 226.137C217.441 225.979 218.287 225.816 219.08 225.541C219.481 225.401 219.864 225.195 220.239 224.999C220.593 224.809 220.967 224.616 221.361 224.469C223.175 223.225 224.145 221.553 225.172 219.784C225.577 219.084 225.997 218.363 226.479 217.652C227.144 216.677 228.299 215.591 229.641 214.677C229.8 214.565 230.033 214.381 230.305 214.161C231.311 213.357 232.741 212.233 233.529 212.423L233.655 212.448L233.645 212.577C233.607 213.335 233.223 214.097 232.856 214.833C232.683 215.18 232.52 215.505 232.396 215.812C231.999 216.824 231.545 217.812 231.047 218.745C229.904 220.876 228.537 222.675 226.988 224.1C226.035 224.968 225.181 225.419 224.095 225.987L223.723 226.183C223.211 226.456 222.657 226.651 222.125 226.833C221.608 227.017 221.073 227.199 220.587 227.461C218.671 228.471 217.056 229.691 215.349 230.98L214.903 231.315L214.908 231.341C214.925 231.335 214.937 231.317 214.941 231.312L214.897 231.391L214.76 231.407C214.471 231.56 214.121 231.9 213.808 232.199C213.559 232.444 213.323 232.679 213.109 232.819C212.261 233.4 211.691 233.879 211.14 234.467V234.467ZM206.311 233.563C206.093 233.925 205.945 234.072 205.793 234.072C205.725 234.072 205.663 234.039 205.617 233.985C205.415 233.731 205.621 232.847 205.624 232.839L205.668 232.653C205.807 232.068 205.937 231.513 205.968 230.936C206.005 230.22 205.971 229.501 205.94 228.805C205.896 227.827 205.849 226.816 206 225.787C206.419 222.869 207.709 219.625 209.629 216.627L209.732 216.464C209.735 216.464 209.735 216.464 209.739 216.461C209.797 216.368 209.861 216.261 209.924 216.149C210.213 215.665 210.543 215.108 210.927 215.073H210.957L210.987 215.083C211.149 215.137 211.18 215.296 211.195 215.389C211.199 215.416 211.211 215.464 211.217 215.475L211.311 215.547L211.264 215.647C210.627 217.308 210.373 219.244 210.589 220.824C210.651 221.248 210.745 221.687 210.829 222.107C211.069 223.253 211.311 224.443 210.999 225.627C210.453 227.667 209.217 229.383 208.02 231.043C207.432 231.855 206.827 232.695 206.311 233.563V233.563ZM204.361 218.055C202.947 219.245 200.635 220.508 198.652 220.633L198.439 220.645L198.492 220.441C198.64 219.912 199.143 219.383 199.592 218.912C199.792 218.699 199.98 218.504 200.12 218.321L200.413 217.951C200.912 217.311 201.432 216.652 201.988 216.028C203.021 214.872 204.423 213.671 206.272 212.349C207.264 211.641 208.295 210.951 209.292 210.281C211.439 208.851 213.66 207.365 215.593 205.615L215.6 205.608L216.34 204.94L215.896 205.685C216.293 206.2 215.68 207.295 215.269 208.033C215.175 208.201 215.095 208.343 215.051 208.436C214.672 209.293 214.139 209.956 213.367 210.536C212.637 211.085 211.813 211.523 211.017 211.951C210.251 212.357 209.453 212.779 208.756 213.293C207.815 213.991 207.099 214.905 206.408 215.789C205.793 216.571 205.16 217.38 204.361 218.055V218.055ZM203.825 230.133C204.307 231.395 204.187 232.72 204.068 234C204.053 234.165 204.035 234.333 204.024 234.493C203.929 235.647 203.949 236.819 203.971 237.955L203.985 238.783H203.831C202.959 238.777 202.303 238.772 201.652 238.764C200.907 238.759 200.167 238.752 199.105 238.752L198.96 238.749L198.955 238.604C198.929 237.8 199.309 236.987 199.673 236.197C199.936 235.631 200.212 235.044 200.315 234.481C200.485 233.581 200.516 232.66 200.543 231.764C200.565 231.045 200.589 230.299 200.684 229.564L200.751 229.052C201.06 226.568 201.411 223.768 203.796 222.107C203.805 222.095 203.811 222.085 203.823 222.077C203.823 222.077 203.825 222.072 203.831 222.072C203.905 222.007 204.009 221.951 204.085 221.911C204.088 221.911 204.088 221.911 204.088 221.911C204.169 221.864 204.249 221.837 204.332 221.837C204.415 221.837 204.537 221.864 204.656 221.989L204.689 222.027L204.695 222.077C204.743 222.481 204.417 222.976 204.1 223.456C203.944 223.699 203.793 223.925 203.723 224.1C203.444 224.816 203.291 225.384 203.241 225.896C203.107 227.372 203.297 228.757 203.825 230.133V230.133ZM198.173 228.691C197.487 231.423 195.912 233.879 194.387 236.249L193.979 236.884V236.368C193.979 235.316 193.803 234.204 193.629 233.132C193.305 231.136 192.973 229.072 193.737 227.14C194.909 224.153 197.352 223.024 200.18 221.723L200.292 221.669C200.339 221.645 200.392 221.623 200.463 221.589V221.587C200.492 221.569 200.536 221.539 200.595 221.521H200.599H200.601C200.649 221.511 200.711 221.511 200.771 221.521L200.876 221.545L200.889 221.648C200.948 222.041 200.601 222.491 200.297 222.888C200.173 223.047 200.055 223.2 199.989 223.319C199.741 223.776 199.516 224.272 199.304 224.833C198.831 226.071 198.505 227.377 198.189 228.636L198.173 228.691ZM192.036 227.193C191.841 227.649 191.66 228.113 191.477 228.577C191.22 229.235 190.953 229.916 190.649 230.567C190.631 230.608 190.604 230.761 190.584 230.892C190.509 231.347 190.432 231.82 190.129 231.82C189.947 231.82 189.815 231.636 189.723 231.477C189.321 230.797 189.525 229.839 189.684 229.075C189.715 228.939 189.741 228.809 189.761 228.691C189.983 227.477 190.205 226.465 190.561 225.456C190.98 224.257 191.483 223.301 192.097 222.539C192.555 221.976 193.128 221.511 193.679 221.06C193.961 220.829 194.256 220.592 194.528 220.344C194.665 220.208 194.731 220.141 194.777 220.108C194.843 220.028 195.075 219.995 195.24 220.06L195.287 220.08L195.311 220.125C195.659 220.752 194.959 221.907 194.141 223.131C193.984 223.363 193.849 223.568 193.767 223.709C193.121 224.848 192.557 225.987 192.036 227.193V227.193ZM189.14 224.875L189.04 224.84C188.557 224.647 188.637 223.911 188.696 223.369C188.715 223.212 188.732 223.065 188.725 222.983C188.715 222.804 188.703 222.628 188.691 222.456C188.637 221.775 188.584 221.069 188.647 220.344C188.791 218.58 189.336 216.877 189.86 215.227L189.871 215.191C190.351 213.707 190.376 212.417 190.411 210.925L190.423 210.291C190.429 209.956 190.429 209.633 190.429 209.317C190.429 208.149 190.429 207.045 190.885 205.815C190.897 205.768 190.921 205.685 190.963 205.627C190.995 205.561 191.032 205.496 191.075 205.424C191.151 205.299 191.228 205.161 191.263 205.017L191.288 204.919L191.381 204.899C191.436 204.899 191.553 204.899 191.585 205.028C193.007 208.043 193.331 211.82 192.453 215.137C192.039 216.724 191.407 218.28 190.791 219.781L190.572 220.327C190.487 220.536 190.401 220.747 190.312 220.953C190.063 221.539 189.805 222.143 189.649 222.763C189.608 222.941 189.587 223.171 189.565 223.413C189.525 223.9 189.477 224.453 189.211 224.787L189.14 224.875ZM188.345 216.163L188.305 216.333C188.301 216.375 188.288 216.421 188.277 216.476V216.487C187.639 219.485 187.113 222.639 187.572 225.408L187.591 225.503L187.472 225.579L187.401 225.591C186.925 225.591 185.975 222.571 185.969 222.539C185.715 221.456 185.916 220.404 186.109 219.383C186.161 219.101 186.215 218.817 186.259 218.533C186.721 215.659 185.673 213.367 184.461 210.713L184.396 210.572C184.2 210.137 183.979 209.708 183.745 209.252C183.248 208.291 182.733 207.295 182.488 206.289C182.16 204.931 182.143 203.516 182.157 202.063C182.167 200.864 182.449 199.779 182.751 198.633L182.84 198.305C183.039 197.54 183.041 196.799 183.041 196.02C183.041 195.44 183.041 194.836 183.136 194.228L183.141 194.173L183.177 194.137C183.237 194.084 183.307 194.055 183.384 194.055C184.035 194.055 185.248 196.908 185.911 198.607C186.348 199.741 186.377 200.953 186.401 202.125C186.423 203 186.444 203.905 186.639 204.775C186.853 205.739 187.259 206.668 187.649 207.561C188.004 208.384 188.377 209.235 188.608 210.119C189.128 212.139 188.783 214.128 188.348 216.152C188.348 216.152 188.348 216.155 188.345 216.163V216.163ZM186.751 233.332C186.663 233.459 186.537 233.523 186.387 233.523C186.365 233.523 186.345 233.523 186.325 233.523L186.272 233.519L186.236 233.476C185.988 233.229 185.869 232.804 185.753 232.4C185.695 232.193 185.639 231.999 185.573 231.851C185.496 231.673 185.413 231.5 185.331 231.323C185.159 230.957 184.988 230.585 184.831 230.211C184.687 229.871 184.556 229.513 184.432 229.171C184.177 228.465 183.912 227.736 183.521 227.1C183.284 226.709 183.044 226.345 182.811 225.991C181.769 224.408 180.867 223.041 181.029 220.948C181.237 218.308 180.941 215.617 180.681 213.244C180.657 213.025 180.64 212.796 180.619 212.559C180.551 211.689 180.468 210.708 180.101 209.973C180.055 209.879 180.001 209.78 179.944 209.673C179.623 209.072 179.225 208.324 179.237 207.683C179.237 207.671 179.237 207.645 179.24 207.611L179.252 207.561L179.315 207.468C179.344 207.436 179.387 207.409 179.433 207.396L179.492 207.384C179.533 207.384 179.577 207.399 179.613 207.436C180.533 207.703 181.344 208.749 182.019 209.744C182.769 210.844 183.432 212.26 183.917 213.299C184.556 214.665 184.901 215.843 184.947 216.795C184.981 217.593 184.733 218.333 184.487 219.048C184.365 219.404 184.243 219.769 184.153 220.136C183.68 222.16 184.497 224.188 185.289 226.152C185.496 226.673 185.715 227.212 185.899 227.727C185.911 227.768 187.411 232.388 186.751 233.332V233.332ZM184.077 235.796L184.012 235.972L183.855 235.877C183.276 235.535 182.935 234.937 182.609 234.363C182.461 234.109 182.325 233.869 182.172 233.659C181.936 233.332 181.668 233.007 181.415 232.689C181.107 232.311 180.788 231.92 180.504 231.507C179.38 229.897 178.096 228.415 176.676 227.103C176.044 226.515 175.377 225.937 174.732 225.381C173.961 224.709 173.163 224.019 172.411 223.301C172.115 223.019 171.825 222.728 171.539 222.439C171.151 222.053 170.755 221.656 170.347 221.285C170.252 221.192 170.104 221.083 169.947 220.967C169.589 220.705 169.193 220.413 169.024 220.089C169.001 220.073 168.987 220.043 168.975 219.995L168.963 219.935C168.96 219.921 168.957 219.908 168.951 219.895C168.951 219.888 168.951 219.888 168.951 219.888L168.939 219.817L168.953 219.799C168.968 219.735 169.016 219.683 169.087 219.657L169.116 219.648L169.347 219.673C169.803 219.72 170.273 219.764 170.601 219.965C174.668 220.141 177.817 223.349 180.347 225.921L180.379 225.957C181.675 227.276 182.476 228.899 183.148 230.453C183.915 232.221 184.624 234.24 184.077 235.796V235.796ZM181.267 238.712C181.14 238.64 180.96 238.64 180.764 238.656C180.687 238.661 180.611 238.668 180.533 238.668C180.361 238.668 180.131 238.645 179.883 238.48C179.361 238.135 178.953 237.813 178.593 237.452L178.407 237.268C177.557 236.435 176.679 235.571 175.964 234.628C174.505 232.695 172.233 231.123 170.036 229.68C169.856 229.553 169.601 229.429 169.335 229.295C168.773 229.017 168.135 228.696 167.848 228.284C167.761 228.163 167.791 228.067 167.815 228.021C167.891 227.88 168.087 227.859 168.271 227.859C168.747 227.859 169.577 228.021 169.98 228.103C170.084 228.124 170.157 228.137 170.187 228.14C172.825 228.501 175.425 230.067 177.623 231.555C178.521 232.488 179.196 233.553 179.708 234.441H179.711C179.711 234.444 179.713 234.447 179.717 234.452C179.847 234.603 179.983 234.896 180.051 235.049C180.065 235.075 180.072 235.088 180.072 235.088V235.091C180.64 236.132 181.187 237.263 181.485 238.54L181.563 238.865L181.267 238.712ZM176.363 238.729C174.615 238.712 172.668 238.693 170.264 238.693H168.987L168.98 238.552C168.929 237.309 167.205 236.075 166.176 235.333L166.12 235.296C164.768 234.325 163.105 233.565 161.027 232.979L160.9 232.944L160.917 232.811C160.973 232.465 161.272 232.048 162.389 232.048C163.12 232.048 163.908 232.221 164.229 232.332C164.993 232.595 165.683 233.004 166.351 233.395C166.572 233.523 166.791 233.653 167.016 233.777C168.099 234.388 169.317 234.744 170.488 235.091C171.381 235.352 172.305 235.625 173.173 236.003H173.184C173.184 236.003 173.209 236.015 173.251 236.029L173.257 236.021C173.257 236.021 173.281 236.035 173.328 236.055C173.521 236.135 173.861 236.287 174.028 236.423L174.044 236.435C174.979 236.937 175.955 237.581 176.493 238.499L176.629 238.729H176.363ZM159.835 229.507C159.616 229.52 159.4 229.521 159.177 229.521C155.848 229.521 153.037 228.424 151.465 226.515L151.332 226.355L151.529 226.277C153.047 225.697 154.629 225.401 156.232 225.401C160.917 225.401 165.608 227.907 168.784 232.1C168.784 232.104 168.791 232.111 168.791 232.113L168.803 232.123C168.811 232.139 168.827 232.155 168.839 232.172C168.856 232.199 168.88 232.221 168.907 232.251C169.028 232.388 169.176 232.56 169.161 232.791L169.152 232.951L168.992 232.932C167.933 232.811 166.804 232.051 165.809 231.381C165.377 231.092 164.967 230.815 164.591 230.613C162.964 229.724 161.633 229.417 159.835 229.507V229.507ZM151.239 221.427C150.896 220.883 150.541 220.32 150.088 219.839L149.979 219.729C149.843 219.593 149.684 219.485 149.533 219.379C149.417 219.297 149.3 219.217 149.196 219.132L149.151 219.089L149.135 218.965L149.184 218.895C149.211 218.864 149.251 218.836 149.325 218.836C150.873 218.96 152.464 219.255 153.741 220.552L154.105 220.923C155.185 222.036 156.203 223.085 157.729 223.735L158.033 223.867L157.735 224.012C157.172 224.289 156.499 224.437 155.795 224.437C154.615 224.437 153.459 224.023 152.7 223.331C152.091 222.769 151.66 222.088 151.239 221.427V221.427ZM169.548 224.071C170.347 224.337 171.055 224.831 171.733 225.309C171.867 225.401 171.997 225.497 172.131 225.588C172.187 225.627 172.26 225.675 172.347 225.727C172.968 226.124 173.58 226.547 173.609 226.975L173.624 227.149L173.447 227.135C171.435 226.957 169.252 226.72 166.887 226.212C165.945 226.015 164.875 225.727 164.061 225.073C163.899 224.947 163.748 224.803 163.595 224.668C163.249 224.36 162.923 224.065 162.515 223.869C161.867 223.551 161.195 223.308 160.551 223.072C159.303 222.612 158.121 222.185 157.06 221.271C156.392 220.695 155.805 220.013 155.156 219.048C155.073 218.929 154.955 218.783 154.824 218.628C154.623 218.38 154.392 218.101 154.227 217.817L154.124 218.676L154.008 217.305C153.981 217.261 153.984 217.212 153.996 217.079L154.001 217.02L154.037 216.984L154.203 216.147L154.271 216.884H154.368L154.413 216.931C155.753 218.399 157.125 219.527 158.605 220.389C160.167 221.288 161.645 221.625 163.36 222.019L163.816 222.119C165.093 222.413 166.312 222.876 167.492 223.325C168.164 223.58 168.856 223.84 169.548 224.071V224.071ZM151.201 210.057C151.015 209.92 150.832 209.797 150.644 209.667C149.837 209.105 149.005 208.524 148.329 207.779C146.847 206.156 145.004 203.945 143.935 201.265C143.676 200.623 143.62 200.291 143.739 200.113C143.792 200.035 143.875 199.995 143.972 199.995C144.103 199.995 144.324 200.055 144.88 200.521C145.608 201.131 146.543 201.632 147.451 202.125C147.861 202.337 148.249 202.547 148.621 202.767C150.959 204.14 153.588 205.828 155.227 208.431C156.955 211.176 158.587 213.593 161.053 215.444C161.607 215.855 162.201 216.24 162.775 216.612C163.467 217.061 164.18 217.528 164.831 218.043C165.7 218.729 166.475 219.531 167.225 220.301L167.62 220.711C167.639 220.725 167.904 220.995 167.944 221.036L168.052 221.139C168.368 221.447 168.693 221.763 168.871 222.177L168.977 222.42L168.711 222.385C167.933 222.279 167.1 221.788 166.295 221.32C165.815 221.041 165.365 220.776 164.957 220.611C164.295 220.337 163.597 220.113 162.92 219.895C162.144 219.64 161.343 219.383 160.581 219.048C158.193 218.008 155.617 215.772 154.02 213.352L153.872 213.128C153.073 211.909 152.44 210.944 151.201 210.057V210.057ZM161.763 209.595C161.799 209.513 161.864 209.453 161.952 209.429L161.993 209.424H162.112L162.157 209.46C162.823 210.051 163.372 210.739 163.904 211.4C164.319 211.913 164.751 212.448 165.229 212.927C166.057 213.759 167.135 214.384 168.179 214.984C168.383 215.097 168.589 215.219 168.791 215.34C169.972 216.033 171.112 216.571 172.495 217.072C173.517 217.44 174.287 218.185 175.028 218.897C175.209 219.073 175.387 219.244 175.569 219.409C175.6 219.439 175.636 219.468 175.673 219.497C175.884 219.676 176.236 219.965 176.001 220.385L175.979 220.427L175.937 220.451C175.896 220.468 175.855 220.473 175.807 220.473C175.547 220.473 175.144 220.196 174.641 219.823C174.5 219.723 174.367 219.623 174.307 219.593C173.428 219.132 172.648 218.805 171.849 218.569C171.131 218.356 170.371 218.233 169.637 218.107C168.572 217.933 167.465 217.753 166.464 217.297C163.644 216.025 161.704 212.879 161.751 209.653L161.763 209.595ZM178.547 217.244L178.511 217.287L178.416 217.297C178.237 217.297 178.031 217.084 177.629 216.629C177.499 216.481 177.351 216.321 177.297 216.284C176.975 216.067 176.605 215.977 176.215 215.879C175.96 215.819 175.695 215.752 175.443 215.647C174.077 215.097 173.092 213.967 172.671 212.469C172.364 211.376 171.849 209.985 170.611 208.98C170.461 208.861 169.941 208.655 169.439 208.456C168.619 208.133 168.001 207.875 167.681 207.637L167.631 207.855L167.501 207.505L167.463 207.464C167.413 207.401 167.424 207.329 167.436 207.229L167.451 207.14L167.48 207.129L167.555 206.792L167.655 207.057C167.661 207.055 167.661 207.052 167.667 207.052L167.703 207.04L167.739 207.045C168.195 207.123 168.696 207.133 169.169 207.133H169.832C170.843 207.133 171.903 207.181 172.769 207.744C173.612 208.295 174.121 209.125 174.611 209.929C174.804 210.245 175.001 210.572 175.216 210.867C175.54 211.311 175.975 211.641 176.435 211.991C176.984 212.409 177.557 212.837 177.907 213.481C178.155 213.944 179.261 216.433 178.547 217.244V217.244ZM165.232 204.372C164.928 204.281 164.597 204.188 164.251 204.093C162.172 203.505 159.587 202.781 158.385 201.301C157.065 199.675 155.761 197.699 156.096 195.361L156.108 195.275L156.256 195.233C156.445 195.233 156.812 195.617 158.441 197.519C159.089 198.276 159.76 199.06 159.947 199.201C160.847 199.907 161.843 200.451 162.959 201.043C163.124 201.128 163.336 201.291 163.559 201.463C163.896 201.723 164.301 202.028 164.605 202.125C164.484 201.663 163.804 201.219 163.289 200.883C163.088 200.751 162.899 200.628 162.757 200.515C162.036 199.936 161.352 199.244 160.72 198.46C159.184 196.552 158.131 194.865 157.492 193.292C157.001 192.087 156.725 191.081 156.652 190.224C156.611 189.727 156.616 189.228 156.62 188.747C156.625 188.132 156.632 187.493 156.54 186.865L156.472 186.417C156.251 184.861 155.993 183.1 154.892 181.887L154.812 181.805C154.724 181.719 154.611 181.632 154.487 181.545C154.268 181.384 154.04 181.219 153.889 180.959L153.765 180.74L154.08 180.731C155.617 180.731 157.56 182.624 158.108 183.655C158.699 184.791 158.675 186.456 158.652 187.792C158.645 188.051 158.643 188.299 158.643 188.528C158.645 192.221 160.805 195.652 162.685 198.232C164.892 201.252 168.268 202.627 171.84 204.081L171.879 204.1C173.695 204.84 175.44 205.615 176.821 206.921C177.54 207.599 177.951 208.417 178.288 209.204C178.321 209.276 178.373 209.377 178.436 209.488C178.685 209.945 179.025 210.565 178.773 210.928L178.735 210.985L178.669 210.995C178.649 210.997 178.628 210.997 178.604 210.997C178.079 210.997 177.321 210.145 176.457 209.116C176.239 208.853 176.052 208.632 175.943 208.524C175.1 207.72 174.153 207.037 173.129 206.496C171.611 205.693 169.9 205.368 168.247 205.052C167.252 204.863 166.224 204.668 165.232 204.372V204.372ZM165.377 193.447C165.613 192.693 165.857 191.912 165.951 191.124C165.951 191.033 166.016 190.944 166.12 190.911L166.268 190.905L166.301 190.924C166.945 191.279 167.424 192.288 167.773 193.027C167.833 193.151 167.889 193.261 167.94 193.363C168.335 194.151 168.555 195.023 168.764 195.871C168.849 196.213 168.939 196.557 169.033 196.888C169.417 198.227 170.359 199.189 171.352 200.213C171.801 200.68 172.267 201.156 172.671 201.675C172.675 201.675 172.677 201.677 172.677 201.677L172.68 201.681L172.695 201.697C172.719 201.728 172.745 201.764 172.781 201.811L172.825 201.869C173.021 202.107 173.287 202.431 173.173 202.911L173.144 203.036L173.015 203.023C172.66 202.993 172.323 202.684 171.997 202.379C171.825 202.224 171.667 202.077 171.529 201.993C170.944 201.651 170.281 201.396 169.643 201.151L169.293 201.019C167.969 200.515 166.472 199.953 165.64 198.837C164.269 196.989 164.833 195.187 165.377 193.447V193.447ZM171.352 186.392C168.076 183.936 166.593 180.267 167.072 175.78C167.276 173.86 167.853 171.804 168.885 169.313C169.167 168.632 169.329 167.888 169.483 167.168C169.701 166.153 169.929 165.104 170.503 164.176C170.595 163.773 170.737 163.32 171.051 163.32C171.719 163.32 172.139 165.864 172.141 165.891C172.364 167.908 172.095 169.839 171.796 171.643C171.497 173.477 171.228 175.868 171.82 178.103C172.221 179.623 173.005 180.921 173.831 182.299C173.955 182.505 174.083 182.716 174.207 182.924C174.541 183.489 174.955 183.957 175.392 184.453C175.595 184.677 175.792 184.905 175.984 185.143C176.233 185.444 176.452 185.764 176.661 186.071C177.001 186.563 177.319 187.027 177.748 187.443C179.089 188.753 180.111 189.948 180.705 191.524C181.731 194.263 181.305 196.965 180.891 199.58C180.687 200.864 180.48 202.193 180.439 203.525C180.427 203.923 180.485 204.319 180.545 204.703C180.604 205.099 180.669 205.508 180.655 205.928L180.648 206.112L180.471 206.073C179.86 205.933 179.291 205.119 178.877 204.521C178.779 204.384 178.693 204.259 178.623 204.165C177.989 203.337 177.463 202.479 177.06 201.607C176.292 199.953 176.056 198.345 176.268 196.227C176.452 194.387 176.516 192.057 175.357 190.387C174.392 188.993 173.083 187.687 171.352 186.392V186.392ZM178.693 175.455C179.599 173.191 180.888 171.065 182.131 169.009C182.597 168.243 183.077 167.445 183.532 166.656C185.189 163.769 186.537 161.141 186.253 158.196C185.913 154.627 186.549 151.195 188.321 147.068C188.457 146.747 188.608 146.419 188.765 146.079C189.389 144.716 190.099 143.172 190.087 141.761C190.087 141.676 190.069 141.563 190.052 141.44C189.985 141.011 189.909 140.477 190.24 140.216C190.32 140.157 190.407 140.127 190.495 140.127C190.921 140.127 191.263 140.791 191.553 141.409C191.585 141.476 191.613 141.531 191.628 141.561C193.044 144.18 192.873 146.835 192.691 149.647C192.66 150.133 192.628 150.627 192.604 151.121C192.5 153.323 192.681 154.871 193.221 156.465C193.595 157.557 193.767 158.411 193.784 159.224C193.803 159.803 193.612 160.404 193.435 160.983C193.325 161.329 193.221 161.653 193.163 161.973C192.944 163.109 192.379 164.149 191.831 165.156C191.5 165.764 191.161 166.391 190.903 167.027C190.693 167.549 190.473 168.068 190.252 168.587C189.732 169.817 189.191 171.091 188.797 172.391C187.783 175.744 187.591 179.965 188.283 183.677C188.56 185.172 188.992 186.648 189.413 188.077C190.045 190.244 190.701 192.488 190.829 194.825C190.951 197.069 190.808 198.963 190.383 200.784C190.215 201.509 190.007 202.236 189.805 202.94C189.557 203.816 189.3 204.716 189.116 205.615V205.617C189.116 205.617 189.116 205.617 189.116 205.62C189.087 205.765 189.079 205.916 189.069 206.081C189.052 206.371 189.033 206.673 188.887 206.957L188.839 207.052L188.736 207.04C187.647 206.911 187.735 204.153 187.967 201.467C187.987 201.233 188.001 201.053 188.007 200.949C188.123 198.485 188.143 196.068 188.152 194.02C188.159 191.812 187.469 189.725 186.801 187.707C186.183 185.847 185.547 183.919 185.445 181.887C185.236 177.644 186.591 173.517 187.899 169.531L188.241 168.493C188.933 166.36 189.436 164.176 189.732 161.999C189.861 161.027 189.916 159.976 189.895 158.785C189.892 158.607 189.897 158.408 189.907 158.201C189.927 157.544 189.956 156.808 189.684 156.289C189.389 156.7 189.4 157.464 189.407 157.988C189.407 158.097 189.407 158.2 189.407 158.292C189.4 159.056 189.3 159.847 189.099 160.713C188.883 161.671 188.625 162.631 188.377 163.559C188.193 164.228 188.017 164.895 187.851 165.567C187.324 167.687 186.331 169.709 185.367 171.663C184.845 172.72 184.307 173.811 183.852 174.896C182.668 177.737 181.459 181.055 182.077 184.485C182.279 185.568 182.663 186.549 183.072 187.581C183.224 187.964 183.373 188.352 183.517 188.747C183.556 188.855 183.644 189.041 183.751 189.277C184.408 190.699 185 192.124 184.384 192.515L184.332 192.551L184.269 192.535C183.828 192.429 183.293 191.736 182.781 191.001L182.699 190.892C182.503 190.617 182.289 190.352 182.077 190.088C181.837 189.789 181.592 189.481 181.367 189.167L180.927 188.547C180.069 187.347 179.185 186.108 178.528 184.755C177.179 181.979 177.232 179.111 178.693 175.455V175.455ZM192.871 194.435C193.16 193.156 193.719 191.915 194.256 190.713C194.519 190.129 194.791 189.524 195.02 188.929L195.091 188.755C195.452 187.836 195.796 186.969 195.977 186.04C196.077 185.535 196.075 185.056 196.068 184.548C196.065 184.199 196.061 183.836 196.093 183.469C196.144 182.924 196.096 182.344 196.052 181.785C196.015 181.296 195.972 180.788 195.993 180.297C196.003 180.096 196.015 179.892 196.032 179.684C196.08 178.992 196.133 178.275 195.956 177.645C195.447 175.797 195.553 173.739 195.724 171.615C195.831 170.3 196.197 167.324 197.373 166.719C197.431 166.649 197.54 166.635 197.611 166.627C197.621 166.609 197.657 166.577 197.724 166.571L197.848 166.555L197.889 166.669C198.125 167.347 198.011 168.047 197.903 168.721C197.824 169.201 197.745 169.696 197.799 170.164C197.895 171.019 198.115 171.992 198.455 173.061C198.604 173.549 198.792 174.033 198.972 174.503C199.177 175.044 199.389 175.604 199.557 176.177C199.741 176.788 199.764 177.404 199.795 177.993C199.805 178.348 199.824 178.715 199.871 179.079C200.031 180.227 200.171 181.048 200.652 181.993C201.072 182.811 201.145 183.759 200.885 184.981C200.411 187.18 199.407 189.528 198.52 191.6C198.368 191.948 198.221 192.288 198.064 192.641C196.564 196.043 194.507 200.704 197.083 203.757C198.445 205.365 198.132 208.359 197.931 209.572C197.717 210.867 197.184 212.097 196.665 213.293C196.327 214.061 195.977 214.865 195.727 215.665C195.228 216.54 194.731 217.368 194.235 218.156C194.18 218.244 194.116 218.359 194.049 218.487C193.763 219.016 193.372 219.741 192.767 219.841L192.575 219.873L192.588 219.683C192.624 219.233 192.819 218.8 193.015 218.38C193.141 218.101 193.263 217.84 193.335 217.576L193.447 217.18C193.612 216.581 193.784 215.961 193.979 215.352C194.216 214.619 194.337 213.849 194.456 213.103C194.58 212.321 194.707 211.512 194.968 210.739C194.972 208.776 194.861 207.123 194.311 205.431C193.665 203.472 193.199 201.74 193.007 199.669C192.973 199.336 192.935 198.989 192.897 198.639C192.731 197.239 192.565 195.784 192.871 194.435V194.435ZM202.613 183.371C202.616 182.616 202.379 181.957 202.132 181.263C201.941 180.725 201.747 180.177 201.667 179.581C201.492 178.225 201.907 176.897 202.976 175.403C203.912 174.091 204.803 173.157 205.952 172.279L206.2 172.089C207.14 171.376 208.112 170.641 208.744 169.691L208.78 169.633L208.845 169.623H208.851C208.957 169.623 209.033 169.675 209.045 169.773C209.312 170.715 208.608 171.536 207.988 172.264C207.733 172.561 207.491 172.844 207.324 173.117L207.243 173.248C206.508 174.456 205.745 175.705 205.367 177.051C204.935 178.592 204.796 180.207 204.973 181.597C204.997 181.788 205.024 181.975 205.047 182.157C205.204 183.296 205.352 184.376 204.94 185.596C204.131 187.991 202.888 190.256 201.681 192.449C201.451 192.867 201.22 193.287 200.995 193.707C200.308 194.965 199.731 196.356 199.215 197.943C199.18 198.072 199.061 198.799 198.955 199.441C198.831 200.213 198.761 200.628 198.712 200.855V200.993C198.712 201.179 198.404 201.195 198.404 201.195H198.271L198.263 201.133C198.084 201.035 198.048 200.769 198.027 200.6C198.017 200.548 198.011 200.495 198.001 200.451C197.243 198.355 198.345 195.895 199.315 193.731C199.611 193.061 199.895 192.435 200.104 191.853C200.325 191.244 200.571 190.625 200.832 189.972C201.704 187.789 202.603 185.531 202.613 183.371V183.371ZM207.272 187.255C207.617 186.873 207.949 186.469 208.272 186.081C208.764 185.48 209.277 184.861 209.856 184.297C209.863 184.259 209.875 184.231 209.889 184.211L209.885 184.2L209.9 184.164C209.921 184.107 209.969 184.031 210.081 183.991L210.135 183.98H210.353L210.348 184.139C210.335 184.392 210.329 184.641 210.32 184.888C210.285 186.064 210.252 187.173 209.827 188.329C209.584 188.989 209.396 189.679 209.208 190.349C209.043 190.945 208.869 191.563 208.661 192.165C208.283 193.256 207.78 194.517 206.923 195.611C206.152 196.593 205.233 197.067 204.167 197.612L203.905 197.747C203.9 197.749 203.893 197.752 203.891 197.752C203.799 197.801 203.704 197.855 203.604 197.909C203.135 198.167 202.597 198.463 202.008 198.463C201.917 198.463 201.829 198.457 201.739 198.439L201.635 198.427L201.613 198.323C201.432 197.465 202.039 196.249 202.528 195.277C202.68 194.965 202.828 194.671 202.929 194.428C203.385 193.321 204.012 191.869 204.811 190.444C205.479 189.259 206.396 188.217 207.272 187.255V187.255ZM212.269 193.763C213.879 191.696 214.753 189.237 215.6 186.859C215.843 186.18 216.092 185.48 216.352 184.797L216.364 184.768C216.375 184.737 216.393 184.695 216.412 184.647C216.453 184.529 216.488 184.401 216.52 184.272C216.593 183.991 216.677 183.695 216.844 183.473L216.891 183.413L216.971 183.415C217.5 183.436 217.789 184.367 218.041 185.32C218.083 185.477 218.113 185.605 218.14 185.679C218.564 186.853 218.705 187.94 218.597 189.199C218.437 191.095 217.687 193.003 216.233 195.196C215.003 197.061 213.176 198.745 210.948 200.077L210.739 200.208C209.745 200.799 208.08 201.801 206.799 201.801C206.461 201.801 206.165 201.732 205.92 201.591L205.813 201.532L205.849 201.413C205.987 200.965 206.165 200.521 206.343 200.095C206.467 199.793 206.592 199.492 206.7 199.185C206.899 198.636 207.449 198.237 207.936 197.883C208.099 197.764 208.259 197.651 208.396 197.533C209.693 196.451 211.169 195.18 212.269 193.763ZM209.549 203.165C209.345 203.3 209.171 203.425 209.092 203.488C208.183 204.259 207.243 204.945 206.437 205.52C204.775 206.707 203.803 208.78 203.369 209.909C203.16 210.46 203.001 211.032 202.848 211.583C202.497 212.84 202.137 214.139 201.179 215.229C200.135 216.416 198.705 217.895 196.9 218.848C196.631 218.989 196.435 219.06 196.297 219.06C196.117 219.06 196.057 218.948 196.04 218.897C195.949 218.637 196.324 218.215 196.6 217.989C197.263 217.457 198.084 216.736 198.604 215.884C199.416 214.544 199.635 213.151 199.865 211.672C199.923 211.281 199.989 210.884 200.061 210.485C200.676 207.211 203.585 204.484 206.415 203.059C206.424 203.047 206.437 203.036 206.455 203.023L206.452 203.017C206.455 203.017 206.464 203.012 206.481 203.007C206.7 202.852 207.153 202.692 207.361 202.627L207.405 202.604C208.501 202.136 209.732 201.632 211.067 201.367L211.204 201.34L211.241 201.476C211.341 201.853 210.751 202.337 209.549 203.165V203.165ZM218.708 221.237L218.692 221.344C218.692 221.348 218.692 221.351 218.692 221.351L218.689 221.361C218.677 221.424 218.667 221.48 218.659 221.527L218.612 221.793H218.605C218.589 221.849 218.576 221.881 218.559 221.901C218.287 222.763 217.765 223.46 217.233 224.085C216.517 224.637 215.725 225.047 214.956 225.44C214.732 225.556 214.507 225.671 214.284 225.789C214.193 225.839 214.035 225.952 213.856 226.076C213.269 226.484 212.797 226.797 212.496 226.797C212.472 226.797 212.447 226.797 212.427 226.795L212.364 226.768C212.235 226.673 212.157 226.537 212.135 226.355C211.997 225.257 214.06 222.609 214.376 222.251C215.677 220.757 216.619 219.533 217.291 218.024C217.387 217.809 217.433 217.567 217.488 217.308C217.559 216.956 217.635 216.581 217.852 216.268C217.968 216.099 218.084 216.015 218.209 216.015C218.265 216.015 218.345 216.031 218.421 216.108C218.615 216.308 218.664 216.795 218.661 216.943C218.644 217.517 218.683 218.099 218.724 218.664C218.783 219.504 218.843 220.376 218.708 221.237V221.237ZM215.908 212.092C216.7 211.647 217.568 211.457 218.405 211.272C219.405 211.052 220.352 210.844 221.181 210.237C224.496 207.815 225.845 204.153 227.129 200.595C227.153 200.476 227.224 200.179 227.337 200.029C227.745 198.931 228.26 197.797 229.325 197.333L229.387 197.323H229.605L229.596 197.48C229.549 198.32 229.333 199.173 229.128 199.995C228.937 200.748 228.74 201.527 228.673 202.291C228.561 203.584 228.136 204.744 227.685 205.965C227.6 206.205 227.512 206.443 227.425 206.685L227.408 206.721C227.219 206.984 227.065 207.277 226.917 207.561C226.751 207.88 226.581 208.205 226.355 208.505C225.964 209.016 225.481 209.448 225.019 209.868L224.728 210.128C223.48 211.264 222.117 211.744 220.533 212.293L220.38 212.347C219.108 212.796 218.1 213.52 217.031 214.28C216.824 214.428 216.615 214.579 216.405 214.728C216.131 214.919 215.843 215.091 215.561 215.256C215.204 215.468 214.835 215.693 214.507 215.948C214.453 215.989 214.391 216.049 214.323 216.108C214.063 216.353 213.704 216.683 213.347 216.683C213.316 216.683 213.291 216.68 213.264 216.677L213.195 216.664L213.157 216.612C212.968 216.321 212.923 215.961 213.028 215.537C213.353 214.216 215.077 212.553 215.908 212.092V212.092ZM236.009 230.903C235.785 230.663 235.575 230.423 235.364 230.188C234.679 229.412 234.033 228.68 233.081 228.069C232.341 227.601 231.595 227.299 230.865 227.165C230.661 227.131 230.353 227.131 230.044 227.14C229.92 227.14 229.797 227.149 229.679 227.149C229.455 227.149 229.159 227.135 228.899 227.04L228.733 226.981L228.888 226.703C230.317 224.156 231.667 221.752 232.707 219.099C232.88 218.657 233.081 218.239 233.273 217.827C233.551 217.244 233.839 216.647 234.033 215.992C234.303 215.097 234.723 214.345 235.165 213.549L235.381 213.161C236.305 211.481 236.724 209.339 236.532 207.277C236.432 206.243 236.247 205.099 235.619 204.496C235.361 204.251 235.193 203.94 235.031 203.639C234.816 203.248 234.613 202.875 234.235 202.651C233.969 203.172 234.164 203.733 234.364 204.328C234.472 204.644 234.584 204.969 234.621 205.295C234.732 206.233 234.276 207.373 233.873 208.164C232.781 210.299 231.3 211.495 229.484 212.831C228.249 213.743 227.275 214.896 226.332 216.015C225.843 216.587 225.339 217.185 224.8 217.745C224.232 218.339 223.791 219.095 223.361 219.82C222.769 220.835 222.155 221.879 221.179 222.568C220.977 222.711 220.759 222.681 220.593 222.479C219.983 221.735 219.913 218.352 220.028 217.796C220.392 216.036 221.379 214.493 222.876 213.321C223.463 212.867 224.075 212.448 224.664 212.044C226.005 211.128 227.269 210.264 228.251 208.963C228.884 208.123 229.477 207.283 229.797 206.277C229.94 205.817 229.996 205.331 230.049 204.863C230.111 204.296 230.177 203.709 230.397 203.147C230.209 202.464 230.436 201.695 230.656 200.953C230.765 200.585 230.868 200.243 230.909 199.933C231.067 198.853 231.567 197.824 232.052 196.824L232.176 196.564C232.727 195.415 233.567 194.437 234.376 193.493C234.5 193.347 234.648 193.192 234.797 193.037C235.293 192.525 235.844 191.948 235.879 191.348C233.851 191.673 231.116 192.672 229.436 194.209L229.207 194.423C227.567 195.919 225.711 197.62 225.488 199.757C225.396 200.675 225.015 201.575 224.644 202.444C224.488 202.816 224.325 203.204 224.191 203.579C223.795 204.691 223.356 205.537 222.404 206.324C220.256 208.08 218.273 209.193 216.175 209.829L215.731 209.963L216.009 209.595C216.7 208.676 216.899 207.524 217.091 206.411C217.196 205.793 217.304 205.153 217.5 204.561C217.772 203.721 218.261 202.9 219.04 201.981C219.139 201.869 219.311 201.716 219.512 201.532C219.919 201.172 220.576 200.58 220.643 200.231C219.229 200.048 217.245 201.823 216.319 202.653L216.231 202.733C215.799 203.124 215.373 203.532 214.959 203.935C213.965 204.896 212.936 205.887 211.731 206.673C211.599 206.739 211.501 206.715 211.429 206.696C211.419 206.693 211.395 206.691 211.389 206.691L211.164 207.045L211.128 206.627C210.868 204.491 212.92 202.816 214.572 201.472C214.973 201.141 215.357 200.828 215.691 200.527L216.004 200.243C216.993 199.339 217.931 198.48 218.695 197.361C219.564 196.084 220.08 194.571 220.528 193.132C221.332 190.557 220.96 187.444 220.487 184.74C220.38 184.136 220.156 183.551 219.936 182.984C219.655 182.247 219.363 181.485 219.316 180.653C219.233 179.223 219.636 178.671 220.64 177.681C220.783 177.428 221.001 177.264 221.213 177.105C221.465 176.915 221.688 176.748 221.769 176.453C221.671 176.396 221.552 176.368 221.409 176.368C220.361 176.368 218.652 177.879 218.088 178.375L218.02 178.437C217.033 179.295 216.073 180.291 215.712 181.721C215.412 182.92 215.045 184.195 214.512 185.853C214.476 185.96 214.44 186.084 214.4 186.221C214.109 187.196 213.625 188.835 212.519 189.059L212.311 189.1L212.336 188.895C212.496 187.389 212.356 185.812 212.22 184.285C212.135 183.296 212.039 182.276 212.033 181.284V181.243C212.025 179.749 211.744 179.707 211.713 179.707C211.679 179.707 211.581 179.729 211.4 179.921C210.655 180.733 210.071 181.708 209.501 182.652C209.389 182.836 209.283 183.016 209.171 183.196C209.123 183.275 209.057 183.401 208.98 183.553C208.499 184.495 207.975 185.417 207.363 185.417C207.345 185.417 207.331 185.417 207.313 185.417C207.159 185.404 207.029 185.329 206.94 185.211C206.644 184.827 206.748 184.028 206.881 183.24C206.904 183.099 206.923 182.981 206.928 182.912C207.099 180.673 207.94 178.313 209.495 175.705C209.472 175.689 209.448 175.66 209.436 175.628C209.424 175.587 209.416 175.503 209.517 175.421C210.183 174.595 210.483 173.529 210.78 172.497C210.844 172.271 210.911 172.043 210.977 171.819C211.311 170.737 211.632 169.469 211.477 168.257C211.301 166.845 210.357 162.751 209.023 162.751C208.999 162.751 208.973 162.752 208.952 162.755C208.895 162.972 208.939 163.328 208.98 163.647C209.013 163.921 209.045 164.183 209.027 164.387C208.977 164.884 208.892 165.388 208.768 165.88C208.425 167.223 207.487 168.317 206.809 169.021C206.636 169.2 206.461 169.383 206.289 169.568C205.595 170.3 204.876 171.06 204.071 171.675C203.663 171.989 203.267 172.355 202.881 172.707C202.371 173.179 201.84 173.665 201.255 174.053L201.143 174.128L201.057 174.021C199.7 172.417 199.876 169.86 200.017 167.807C200.039 167.447 200.064 167.104 200.079 166.781C200.132 165.412 200.22 163.828 200.525 162.347C200.652 161.733 200.899 161.16 201.139 160.605C201.313 160.193 201.485 159.799 201.611 159.392C201.501 159.352 201.416 159.249 201.391 159.149C200.351 159.248 199.064 160.892 198.436 161.693C198.36 161.793 198.292 161.881 198.233 161.953C197.217 163.219 196.287 164.735 195.377 166.589C194.471 168.448 193.84 169.948 193.512 171.688C193.18 173.443 193.372 174.961 193.791 176.848C194.485 179.993 195.435 184.305 193.711 187.809C193.563 188.111 193.453 188.44 193.347 188.761C193.224 189.115 193.103 189.481 192.927 189.813C192.891 189.885 192.775 190.103 192.577 190.103C192.137 190.103 192.007 188.951 192.007 188.939C191.972 188.425 192.137 187.944 192.296 187.48C192.388 187.207 192.488 186.925 192.535 186.648C192.681 185.857 192.789 184.981 192.876 183.889C193.033 181.903 192.671 179.9 192.329 177.963C192.004 176.171 191.672 174.317 191.74 172.457C191.808 170.655 192.281 168.675 193.119 166.729C193.777 165.188 194.243 163.673 194.733 162.075L194.912 161.495C195.465 159.707 195.855 158.067 195.041 156.151C194.393 154.621 194.311 153.009 194.783 151.081C195.388 148.609 196.512 144.001 194.075 141.099C193.94 140.936 193.609 140.476 193.149 139.839C191.749 137.889 188.475 133.337 187.673 133.285C187.549 133.795 187.839 134.641 188.072 135.329C188.169 135.609 188.259 135.873 188.312 136.087C188.572 137.132 188.808 138.252 188.759 139.377C188.673 141.239 187.735 142.925 186.828 144.555C186.635 144.897 186.445 145.24 186.265 145.577C185.083 147.813 184.405 149.657 184.005 151.741C183.78 152.888 183.879 154.047 183.973 155.168C184.059 156.203 184.151 157.275 183.995 158.347C184.248 162.139 181.835 166.141 179.895 169.357L179.871 169.395C179.672 169.723 179.468 170.056 179.261 170.395C177.519 173.231 175.547 176.445 175.617 179.663L175.623 179.989L175.369 179.783C174.201 178.833 174.528 176.647 174.792 174.885C174.889 174.223 174.984 173.597 174.979 173.155C174.964 172.332 175.031 171.509 175.093 170.715C175.216 169.188 175.333 167.747 174.943 166.285C174.355 164.052 173.139 162.035 171.909 160.188C171.22 159.143 170.492 158.163 169.805 157.351C169.371 156.835 168.501 156.015 167.876 155.825C167.833 156.451 168.04 157.02 168.255 157.619C168.32 157.797 168.383 157.977 168.443 158.161C168.725 159.043 168.907 159.995 168.992 161.077C169.14 162.976 168.815 164.719 168.465 166.564C168.105 168.497 167.46 170.505 166.603 172.391C166.285 173.083 165.897 173.755 165.52 174.404C164.988 175.325 164.437 176.277 164.1 177.291C162.627 181.712 165.212 185.251 167.944 189C170.003 191.817 172.131 194.732 172.373 198.061L172.388 198.267L172.187 198.217C170.388 197.764 169.873 195.94 169.417 194.331C169.259 193.765 169.111 193.237 168.916 192.812C168.496 191.883 167.804 190.859 167.016 190.003C166.964 189.943 166.899 189.871 166.821 189.789C166.413 189.333 165.683 188.52 165.176 188.281C165.115 188.557 165.103 189.113 165.088 189.655C165.052 191.259 165.011 193.256 163.911 193.256C163.863 193.256 163.813 193.251 163.763 193.244L163.728 193.237L163.663 193.197L163.537 193.173L163.573 193.059C163.588 192.705 163.609 192.353 163.627 191.996C163.733 190.105 163.839 188.149 163.168 186.325C162.508 184.533 161.444 182.717 160.175 181.22C158.643 179.417 156.196 178.343 153.632 178.343C151.932 178.343 150.364 178.816 149.08 179.715C150.711 180.164 152.219 180.655 153.064 182.244C153.848 183.713 154.44 185.679 154.652 187.497C154.777 188.547 154.559 189.575 154.348 190.568C154.192 191.308 154.025 192.077 154.011 192.843C153.979 194.375 154.091 195.88 154.387 197.876C154.919 201.467 157.715 203.343 160.657 204.827C161.195 205.096 161.743 205.292 162.272 205.472C163.325 205.845 164.319 206.191 165.136 207.092C166.023 208.076 166.419 209.411 166.285 210.967L166.275 211.113L166.129 211.111C164.656 211.047 163.644 209.868 162.757 208.827C162.58 208.62 162.408 208.421 162.243 208.236C161.385 207.307 160.503 206.341 159.065 206.277C159.155 206.401 159.313 206.511 159.479 206.623C159.664 206.744 159.849 206.868 159.971 207.033C160.337 207.552 160.621 208.205 160.761 208.88C160.883 209.46 161.245 211.423 160.805 212.429L160.716 212.635L160.556 212.476C159.628 211.531 159.041 210.383 158.477 209.276C158.007 208.355 157.519 207.396 156.836 206.577C156.511 206.183 156.195 205.78 155.877 205.377C154.753 203.953 153.596 202.479 151.955 201.472C151.08 200.941 150.08 200.701 149.116 200.467C147.752 200.143 146.341 199.801 145.288 198.62C144.511 197.747 143.904 196.723 143.584 195.727C143.368 195.049 143.396 194.419 143.425 193.809C143.437 193.493 143.455 193.168 143.435 192.837C143.087 192.728 142.785 192.812 142.505 193.096C141.444 194.168 141.153 197.725 141.163 198.633C141.189 200.604 142.095 202.872 143.851 205.377C144.857 206.815 146.081 208.092 147.259 209.323C147.817 209.904 148.395 210.507 148.944 211.116C150.003 212.299 150.719 213.372 151.133 214.405C151.333 214.903 151.5 215.416 151.66 215.912C151.867 216.559 152.08 217.22 152.369 217.848L152.515 218.167L151.743 217.907C150.405 217.445 149.039 216.972 147.56 217.02C146.519 217.052 144.289 217.415 144.115 218.285C144.609 218.451 145.096 218.58 145.572 218.704C146.916 219.055 148.187 219.385 149.276 220.516C149.745 221.007 150.085 221.548 150.412 222.072C150.619 222.403 150.832 222.741 151.071 223.06C151.115 223.119 151.313 223.313 151.505 223.5C152.481 224.449 152.565 224.579 152.491 224.735L152.447 224.823L152.345 224.816C151.141 224.763 150.075 224.207 149.099 223.616C148.637 223.331 148.128 222.969 147.837 222.449C147.793 222.38 147.767 222.284 147.744 222.201C147.681 221.989 147.643 221.891 147.516 221.876C147.397 221.864 147.353 221.901 147.324 221.96C147.001 222.699 148.849 226.212 149.251 226.656C150.731 228.259 152.659 229.421 154.547 229.845C155.097 229.968 155.736 229.999 156.416 230.04C157.883 230.111 159.403 230.192 160.313 231.176L160.463 231.341L160.257 231.42C159.332 231.795 158.699 232.411 158.031 233.069L157.864 233.229C157.747 233.376 157.521 233.577 157.261 233.813C156.764 234.253 156.103 234.843 156.055 235.281C156.451 235.256 156.841 235.192 157.22 235.127C157.8 235.032 158.391 234.931 159.036 234.972L159.32 234.991C160.219 235.049 161.335 235.121 162.136 235.375C162.988 235.647 163.881 236.171 164.656 236.848C164.94 237.097 165.129 237.428 165.307 237.749C165.477 238.048 165.64 238.331 165.861 238.513L166.011 238.633L165.857 238.752C165.676 238.883 165.652 238.963 165.656 238.975C165.692 239.077 166.195 239.244 167.395 239.244H170.524C171.529 239.244 172.539 239.251 173.547 239.256C174.268 239.261 174.987 239.264 175.709 239.268C179.705 239.292 183.704 239.285 187.7 239.299C189.443 239.303 191.184 239.299 192.927 239.295C195.333 239.292 197.735 239.285 200.139 239.303C202.311 239.32 204.491 239.328 206.668 239.328H206.821L208.523 239.32C208.939 239.32 209.355 239.328 209.771 239.333H209.952C210.324 239.345 210.616 239.351 210.745 239.221C210.827 239.137 210.859 238.984 210.851 238.749L210.848 238.683L210.897 238.633C212.38 237.263 213.675 237.321 215.553 237.411L215.896 237.428C216.552 237.452 217.196 237.559 217.819 237.656C218.559 237.771 219.256 237.883 219.983 237.883C220.28 237.883 220.559 237.865 220.827 237.831C222.361 237.624 223.871 236.931 225.191 235.831C225.639 235.457 226.053 235.044 226.452 234.641C227.187 233.903 227.947 233.136 228.952 232.613L229.023 232.577C230.508 231.808 232.04 231.016 233.776 230.98H233.856C234.751 230.98 235.572 231.228 236.369 231.465C236.429 231.483 236.472 231.495 236.507 231.497C236.459 231.417 236.347 231.252 236.047 230.944L236.009 230.903" fill="white"/>
<path d="M143.972 200.195V200.148L143.969 200.195C143.972 200.195 143.972 200.195 143.972 200.195Z" fill="white"/>
<path d="M104.435 238.708H273.848L189.135 118.221L104.435 238.708ZM279.095 241.435H99.1891L189.135 113.483L279.095 241.435" fill="white"/>
<path d="M269.257 158.007L258.367 139.152L247.481 158.007H243.099L258.367 131.565L273.636 158.007H269.257Z" fill="white"/>
<path d="M118.039 154.208H106.891L104.667 158.008H135.191L133.008 154.208H121.825V134.852L119.925 131.565L118.065 134.788L118.039 154.208" fill="white"/>
<path d="M180.451 280.028H197.836L189.137 264.97L180.451 280.028ZM204.415 283.823H173.877L189.137 257.375L204.415 283.823Z" fill="white"/>
</svg>
