<svg xmlns="http://www.w3.org/2000/svg" viewBox="0 0 68.71 6.98"><defs><style>.cls-1{fill:#fff;}</style></defs><g id="Слой_2" data-name="Слой 2"><g id="Слой_1-2" data-name="Слой 1"><path class="cls-1" d="M64,3l.3.27V5.57l-.24.15-.75-.48V3.63a1.83,1.83,0,0,0,0-.47A.73.73,0,0,0,63,2.75a2.49,2.49,0,0,0-.24-.17,1.55,1.55,0,0,1-.24-.19.44.44,0,0,1-.14-.31.4.4,0,0,1,.11-.31.46.46,0,0,1,.2-.13v0a1,1,0,0,0-.42.13.94.94,0,0,0-.36.32.69.69,0,0,0-.11.36.62.62,0,0,0,.12.36,1.75,1.75,0,0,0,.19.2l.09.09a1.07,1.07,0,0,1,.23.37,1.09,1.09,0,0,1,0,.28V5.56l1,.6,1.65-1h0v-2l.24-.2-.67-.58Z"/><path class="cls-1" d="M22.49,2.56a.51.51,0,0,1-.22,0h0a.46.46,0,0,1-.34-.18h0L21.4,3l.07.07a1.12,1.12,0,0,0,.35.23.62.62,0,0,0,.26.06h0a.59.59,0,0,0,.23,0,.66.66,0,0,0,.24-.23.81.81,0,0,0,.13-.31,1.86,1.86,0,0,0,.07-.34h-.13A.47.47,0,0,1,22.49,2.56Z"/><path class="cls-1" d="M44.71,2.89h0L44.55,3l-.67.39h0v2l1,.75.71-.43h0l.84-.51v-2l-1-.78Zm.91,2.74-.07,0-.84-.56V3l.07,0,.84.59Z"/><path class="cls-1" d="M59.21,3l.26-.3h-.82V1.84h-.07L57.4,3v0a.32.32,0,0,1,.14,0,.42.42,0,0,1,.16.13.61.61,0,0,1,0,.12.62.62,0,0,1,0,.13V5.3l-.21.14.84.72.93-.48,0-.07L59,5.74l-.37-.38V3Z"/><polygon class="cls-1" points="61.31 1.48 60.75 0.84 60.12 1.39 60.68 2.03 61.31 1.48"/><path class="cls-1" d="M27.29,5.6A.64.64,0,0,1,27,5.45a1,1,0,0,1-.21-.27,1.13,1.13,0,0,1-.12-.69,1,1,0,0,1,.12-.34h0l-.06,0a3,3,0,0,0-.47.32,1.28,1.28,0,0,0-.27.31.89.89,0,0,0-.12.37.82.82,0,0,0,.2.56,1.16,1.16,0,0,0,.73.4l.75-.55a.32.32,0,0,1-.14,0Z"/><path class="cls-1" d="M7.5,2.46,7,3H7l-.43.4V.56H6.45l-1.17.83v0a.35.35,0,0,1,.14.06.44.44,0,0,1,.15.12.61.61,0,0,1,0,.12.62.62,0,0,1,0,.13V5.27l-.22.14.85.72.84-.58,0-.07-.23.16-.3-.31V3.5L7,3l.47.39V5.24a3.07,3.07,0,0,1-.1.91,1.2,1.2,0,0,1-.3.49.89.89,0,0,1-.42.24V7h.18a1.49,1.49,0,0,0,.63-.14,1.31,1.31,0,0,0,.62-.54,1.52,1.52,0,0,0,.21-.54,3.76,3.76,0,0,0,0-.59v-2Z"/><polygon class="cls-1" points="19.91 3.04 19.95 3.11 20.23 2.92 20.52 3.29 20.52 5.3 20.31 5.45 21.18 6.13 22.2 5.38 22.16 5.32 21.77 5.6 21.4 5.3 21.4 2.99 20.82 2.43 19.91 3.04"/><path class="cls-1" d="M48.66,5.7l-.33-.33V.6h-.07l-1.17.82v0l.14.06a.39.39,0,0,1,.15.13.18.18,0,0,1,0,.12.49.49,0,0,1,0,.12V5.3l-.21.14h0l.87.74.84-.57Z"/><polygon class="cls-1" points="61.48 5.65 61.15 5.33 61.15 3.09 60.63 2.46 59.99 2.89 59.99 2.89 59.72 3.08 59.77 3.15 60.05 2.96 60.34 3.33 60.34 5.34 60.13 5.48 60.89 6.16 61.86 5.48 61.82 5.42 61.48 5.65"/><path class="cls-1" d="M28.81,5.62l-.39-.4V3.15l-1.09-.7-.74.39,1,.62v.8l-.07,0-.4-.11A2.47,2.47,0,0,1,26.71,4a1,1,0,0,1-.38-.27.52.52,0,0,1-.12-.31.5.5,0,0,1,.06-.24.94.94,0,0,1,.32-.31l-.05,0A1,1,0,0,0,26.3,3a.9.9,0,0,0-.15.19.51.51,0,0,0,0,.24.5.5,0,0,0,.08.26A1,1,0,0,0,26.6,4l.11,0,.08,0h.05l.28.09.48.14V5.57l.58.58,1-.66,0-.07Z"/><path class="cls-1" d="M11.11,5.54l-1-.66v-.4l1.59-1L11,2.43l-.88.46h0l-.82.42v2l1.15.85L11.93,5l0-.06Zm-.76-2.67.68,1-.89.55V3Z"/><path class="cls-1" d="M19.67,5.37l-.23.18-.14-.11a.8.8,0,0,1-.31-.5,2.15,2.15,0,0,1,0-.5v-3a1.54,1.54,0,0,1,0-.37.87.87,0,0,1,.15-.34l.1-.1L19.16.55,18.7,1l0,0a2.39,2.39,0,0,0-1.29-.4h-.19a2.06,2.06,0,0,0-1.38.7,1.71,1.71,0,0,0-.35.7,1.58,1.58,0,0,0,0,.78,1.53,1.53,0,0,0,.39.69,1.5,1.5,0,0,0,.46.33h0l-.89,1.48-.25.16a2.1,2.1,0,0,0-.6.81h0a1.83,1.83,0,0,1,1.31-.56,1.91,1.91,0,0,1,1.17.41l.83-.72,0,0a4.25,4.25,0,0,0,.47.48,3.37,3.37,0,0,0,.38.28l.7-.56h0l.21-.17ZM18.08,1.48l0,0v2H16.58l1.29-2.13.1,0ZM15.73,2.89a1.39,1.39,0,0,1,.16-1,1.38,1.38,0,0,1,.55-.52,1.51,1.51,0,0,1,.7-.17h0a1.74,1.74,0,0,1,.59.13h0L16.31,3.77A1.73,1.73,0,0,1,15.73,2.89ZM16.16,5a2.37,2.37,0,0,0-.36.09l-.14,0-.1,0,.62-1h1.93v1l-.38.32-.15-.11A2.05,2.05,0,0,0,16.45,5Zm1.95.21Z"/><polygon class="cls-1" points="32.76 5.6 32.36 5.24 32.36 3.18 31.48 2.43 30.65 3.06 30.65 3.04 30.09 2.41 29.14 3.06 29.19 3.13 29.47 2.94 29.8 3.31 29.8 5.33 29.54 5.55 30.31 6.16 30.94 5.59 30.65 5.33 30.65 3.16 30.97 2.92 31.61 3.47 31.61 5.35 31.39 5.57 32.06 6.18 33.08 5.49 33.04 5.42 32.76 5.6"/><path class="cls-1" d="M50.82,5.7l-.33-.33V.6h-.07l-1.18.82v0l.15.06a.64.64,0,0,1,.15.13.43.43,0,0,1,.05.12.49.49,0,0,1,0,.12V5.3l-.21.14h0l.86.74.84-.57,0-.07Z"/><path class="cls-1" d="M43.23,1l-.12.13a5.45,5.45,0,0,1-.58-.22,3.66,3.66,0,0,1-.74-.43h0l-1.61,1-.06,0h0l-.42.26a.75.75,0,0,1,.1-.17,2,2,0,0,1,.76-.74v0a3,3,0,0,0-1.37,1,3,3,0,0,0-.58,1.64,2.74,2.74,0,0,0,.72,1.95,2.45,2.45,0,0,0,1.76.78h.14a2.16,2.16,0,0,0,1-.33,1.94,1.94,0,0,0,.7-.78,1.87,1.87,0,0,0,.19-.69h-.05a2.14,2.14,0,0,1-.62.72,2,2,0,0,1-.87.34h-.07V1.27h0l.19.11c.25.13.6.3.86.4l.65-.67h0l.09-.1ZM39.41,2.82a3.19,3.19,0,0,1,.19-.91h0l0,0,.48-.29V4.11l-.49.2,0,0a1.87,1.87,0,0,1-.13-.42A3.4,3.4,0,0,1,39.41,2.82Zm2,2.61H41.3a2,2,0,0,1-.68-.13,1.83,1.83,0,0,1-.72-.54,1.9,1.9,0,0,1-.22-.33l0-.05.46-.19h0L41,3.84V1.05L41.05,1l.32.21,0,0Z"/><path class="cls-1" d="M35.14,5.54l-1-.66v-.4l1.59-1-.7-1.07-.89.46h0l-.82.42v2l1.16.85L36,5l-.06-.06Zm-.76-2.67.67,1-.89.55V3Z"/><path class="cls-1" d="M4.38.16A1.33,1.33,0,0,0,3.87,0H3.64V.05l.21,0A.73.73,0,0,1,4.11.2a.29.29,0,0,1,.1.12.22.22,0,0,1,0,.16.24.24,0,0,1,0,.14.48.48,0,0,1-.11.09.43.43,0,0,1-.23.05h0a2.84,2.84,0,0,1-.57-.1L3.1.63A5.48,5.48,0,0,1,2.38.41L2.21.35A2.88,2.88,0,0,0,1.62.21l-.23,0A1.5,1.5,0,0,0,1,.24,1.15,1.15,0,0,0,.54.48a.94.94,0,0,0-.3.43.91.91,0,0,0,0,.63A.8.8,0,0,0,.65,2l0,0a.38.38,0,0,1-.15-.18.44.44,0,0,1,0-.3.48.48,0,0,1,.15-.2.55.55,0,0,1,.22-.1l.18,0,.29,0L2,1.34l.43.1.32.08c.24.06.49.12.73.16h.18v1l-.52.52.52.51V5.15l0,0a2.14,2.14,0,0,1-.68.21H2.71a1.93,1.93,0,0,1-.92-.23,1.85,1.85,0,0,1-.39-.3l-.06-.06h0l.54-.22h0l.91-.39V1.91L2.48,2,1,2.68H1L1,2.55a2.38,2.38,0,0,1,.78-.94l0,0a2.13,2.13,0,0,0-1.14.59A2.25,2.25,0,0,0,0,3.34a2.37,2.37,0,0,0,.59,2,2.56,2.56,0,0,0,1.86.81h.09A2.19,2.19,0,0,0,3.7,5.83,2,2,0,0,0,4.51,5a2,2,0,0,0,.23-1h0a2.32,2.32,0,0,1-.68.9l-.16.13-.09.06h0V3.77l.52-.51-.52-.52v-1H4a1.3,1.3,0,0,0,.48-.17.77.77,0,0,0,.33-.45A.77.77,0,0,0,4.76.52,1,1,0,0,0,4.38.16ZM.93,2.83l0-.05.93-.39V4.5l-.59.25,0,0a1.8,1.8,0,0,1-.31-.58A2.1,2.1,0,0,1,.93,2.83Z"/><path class="cls-1" d="M53.27,5.54l-1-.66v-.4l1.6-1-.71-1.07-.89.46h0l-.82.42v2l1.16.85L54.09,5,54,4.91Zm-.76-2.67.67,1-.89.55V3Z"/><path class="cls-1" d="M25,5.49h-.05a1,1,0,0,1-.5-.14A.94.94,0,0,1,24,5h0V2.89l.07,0,.71.59L25.36,3l-.7-.56L24,2.8h0l-.84.47V5.43l1,.71,1.18-.85-.05-.07Z"/><path class="cls-1" d="M56.49,5.49h-.05a1,1,0,0,1-.5-.14,1,1,0,0,1-.39-.4h0V2.89l.06,0,.71.59L56.88,3l-.71-.56-.62.35h0l-.85.47V5.43l1,.71,1.18-.85-.05-.07Z"/><path class="cls-1" d="M68.66,4.91l-.77.63-1-.66v-.4l1.6-1L67.8,2.43l-.89.46h0l-.81.42v2l1.15.85L68.71,5Zm-1.53-2,.67,1-.89.55V3Z"/></g></g></svg>